<svg xmlns="http://www.w3.org/2000/svg" width="600" height="600" viewBox="0 0 600 600">
  <defs>
    <linearGradient id="bg" x1="0%" y1="0%" x2="100%" y2="100%">
      <stop offset="0%" stop-color="#ff9a9e"/>
      <stop offset="100%" stop-color="#fecfef"/>
    </linearGradient>
  </defs>
  <rect width="600" height="600" fill="url(#bg)"/>
<circle cx="61" cy="199" r="6" fill="rgba(255,255,255,0.10)"/>
<circle cx="551" cy="472" r="5" fill="rgba(255,255,255,0.10)"/>
<circle cx="205" cy="466" r="6" fill="rgba(255,255,255,0.10)"/>
<circle cx="113" cy="501" r="5" fill="rgba(255,255,255,0.10)"/>
<circle cx="438" cy="361" r="5" fill="rgba(255,255,255,0.10)"/>
<circle cx="127" cy="184" r="5" fill="rgba(255,255,255,0.10)"/>
<circle cx="441" cy="527" r="5" fill="rgba(255,255,255,0.10)"/>
<circle cx="430" cy="57" r="6" fill="rgba(255,255,255,0.10)"/>
<circle cx="110" cy="342" r="5" fill="rgba(255,255,255,0.10)"/>
<circle cx="351" cy="138" r="6" fill="rgba(255,255,255,0.10)"/>
<circle cx="546" cy="21" r="7" fill="rgba(255,255,255,0.10)"/>
<circle cx="493" cy="443" r="3" fill="rgba(255,255,255,0.10)"/>
<g transform="translate(300.0,280) scale(1.12)">
    <rect x="-105" y="-72" width="210" height="130" rx="10" fill="rgba(255,255,255,0.92)"/>
    <rect x="-92" y="-60" width="184" height="106" rx="5" fill="#31354c"/>
    <path d="M -125 62 L 125 62 L 140 88 Q 142 96 130 96 L -130 96 Q -142 96 -140 88 Z" fill="rgba(255,255,255,0.85)"/>
    <rect x="-30" y="70" width="60" height="8" rx="4" fill="#9aa0b0"/>
  </g><text x="300.0" y="55" font-family="Vazirmatn, Tahoma, sans-serif" font-size="26" fill="rgba(255,255,255,0.85)" text-anchor="middle">تصویر 3</text>
  <text x="300.0" y="522" font-family="Vazirmatn, Tahoma, sans-serif" font-size="30"
        font-weight="700" fill="#ffffff" text-anchor="middle" direction="rtl"
        stroke="rgba(0,0,0,0.25)" stroke-width="0.6">لپ‌تاپ ایسوس VivoBook</text>
  <text x="300.0" y="560" font-family="Vazirmatn, Tahoma, sans-serif" font-size="30"
        font-weight="700" fill="#ffffff" text-anchor="middle" direction="rtl"
        stroke="rgba(0,0,0,0.25)" stroke-width="0.6">15</text>
</svg>
