<svg xmlns="http://www.w3.org/2000/svg" width="600" height="600" viewBox="0 0 600 600">
  <defs>
    <linearGradient id="bg" x1="0%" y1="0%" x2="100%" y2="100%">
      <stop offset="0%" stop-color="#48c6ef"/>
      <stop offset="100%" stop-color="#6f86d6"/>
    </linearGradient>
  </defs>
  <rect width="600" height="600" fill="url(#bg)"/>
<circle cx="82" cy="510" r="6" fill="rgba(255,255,255,0.10)"/>
<circle cx="456" cy="130" r="6" fill="rgba(255,255,255,0.10)"/>
<circle cx="474" cy="95" r="3" fill="rgba(255,255,255,0.10)"/>
<circle cx="349" cy="171" r="3" fill="rgba(255,255,255,0.10)"/>
<circle cx="149" cy="301" r="7" fill="rgba(255,255,255,0.10)"/>
<circle cx="352" cy="410" r="7" fill="rgba(255,255,255,0.10)"/>
<circle cx="563" cy="321" r="6" fill="rgba(255,255,255,0.10)"/>
<circle cx="537" cy="460" r="3" fill="rgba(255,255,255,0.10)"/>
<circle cx="137" cy="240" r="6" fill="rgba(255,255,255,0.10)"/>
<circle cx="482" cy="253" r="6" fill="rgba(255,255,255,0.10)"/>
<circle cx="367" cy="484" r="6" fill="rgba(255,255,255,0.10)"/>
<circle cx="445" cy="117" r="5" fill="rgba(255,255,255,0.10)"/>
<g transform="translate(300.0,265) scale(1.0)">
    <rect x="-55" y="-100" width="110" height="200" rx="22" fill="rgba(255,255,255,0.92)"/>
    <rect x="-30" y="-80" width="60" height="8" rx="4" fill="#31354c"/>
    <circle cx="0" cy="-20" r="34" fill="none" stroke="#31354c" stroke-width="4" stroke-dasharray="6 8"/>
    <rect x="-18" y="55" width="36" height="10" rx="5" fill="#31354c"/>
    <rect x="-18" y="74" width="36" height="10" rx="5" fill="#31354c"/>
  </g>  <text x="300.0" y="522" font-family="Vazirmatn, Tahoma, sans-serif" font-size="30"
        font-weight="700" fill="#ffffff" text-anchor="middle" direction="rtl"
        stroke="rgba(0,0,0,0.25)" stroke-width="0.6">پاوربانک شیائومی 20000</text>
  <text x="300.0" y="560" font-family="Vazirmatn, Tahoma, sans-serif" font-size="30"
        font-weight="700" fill="#ffffff" text-anchor="middle" direction="rtl"
        stroke="rgba(0,0,0,0.25)" stroke-width="0.6">میلی‌آمپر</text>
</svg>
